<svg width="184" height="59" viewBox="0 0 184 59" fill="none" xmlns="http://www.w3.org/2000/svg">
<path d="M80.9878 36.5314C80.0644 36.5314 79.2625 36.3365 78.582 35.9469C77.9178 35.541 77.3994 34.997 77.0268 34.3151C76.6704 33.617 76.4922 32.8376 76.4922 31.9771V21.5535H71.3162V19.4834H84.001V21.5535H78.8251V32.2694C78.8251 32.9026 79.0195 33.4303 79.4083 33.8524C79.8133 34.2583 80.3479 34.4613 81.0121 34.4613H82.1299V36.5314H80.9878Z" fill="#0066FF"/>
<path d="M91.4262 36.5314C90.0654 36.5314 88.8584 36.2797 87.8054 35.7764C86.7524 35.2568 85.9262 34.5343 85.3268 33.6088C84.7435 32.6672 84.4519 31.5712 84.4519 30.321C84.4519 29.0871 84.703 27.983 85.2053 27.0088C85.7075 26.0184 86.4041 25.2391 87.2951 24.6708C88.1861 24.1026 89.2229 23.8184 90.4056 23.8184C91.6854 23.8184 92.7465 24.0945 93.5889 24.6465C94.4475 25.1985 95.0874 25.9454 95.5087 26.8871C95.9299 27.8125 96.1405 28.8517 96.1405 30.0044C96.1405 30.183 96.1324 30.3697 96.1162 30.5646C96.1162 30.7594 96.1 30.9299 96.0676 31.076H86.8334C86.9144 31.8391 87.1655 32.4886 87.5867 33.0243C88.0079 33.5439 88.5425 33.9417 89.1905 34.2177C89.8547 34.4775 90.5838 34.6074 91.3776 34.6074H94.6095V36.5314H91.4262ZM86.8091 29.493H93.8805C93.8805 29.1845 93.8481 28.8598 93.7833 28.5188C93.7185 28.1616 93.6051 27.8207 93.4431 27.4959C93.2811 27.155 93.0624 26.8546 92.787 26.5948C92.5278 26.3188 92.1957 26.0996 91.7907 25.9373C91.4019 25.7749 90.9402 25.6937 90.4056 25.6937C89.8385 25.6937 89.3363 25.8074 88.8989 26.0347C88.4777 26.2458 88.1132 26.538 87.8054 26.9114C87.4976 27.2686 87.2627 27.6745 87.1007 28.1291C86.9387 28.5838 86.8415 29.0384 86.8091 29.493Z" fill="#0066FF"/>
<path d="M98.9912 36.5314V29.3469C98.9912 28.2428 99.2342 27.2767 99.7202 26.4487C100.222 25.6207 100.911 24.9793 101.786 24.5247C102.661 24.0539 103.657 23.8184 104.775 23.8184C105.909 23.8184 106.905 24.0539 107.764 24.5247C108.639 24.9793 109.319 25.6207 109.805 26.4487C110.307 27.2767 110.558 28.2428 110.558 29.3469V36.5314H108.323V29.3712C108.323 28.6243 108.153 27.983 107.812 27.4472C107.488 26.8952 107.051 26.4731 106.5 26.1808C105.965 25.8886 105.39 25.7424 104.775 25.7424C104.159 25.7424 103.576 25.8886 103.025 26.1808C102.49 26.4731 102.053 26.8952 101.713 27.4472C101.389 27.983 101.227 28.6243 101.227 29.3712V36.5314H98.9912Z" fill="#0066FF"/>
<path d="M114.108 36.5314V29.3469C114.108 28.2428 114.351 27.2767 114.837 26.4487C115.339 25.6207 116.028 24.9793 116.902 24.5247C117.777 24.0539 118.774 23.8184 119.891 23.8184C121.025 23.8184 122.022 24.0539 122.88 24.5247C123.755 24.9793 124.436 25.6207 124.922 26.4487C125.424 27.2767 125.675 28.2428 125.675 29.3469V36.5314H123.439V29.3712C123.439 28.6243 123.269 27.983 122.929 27.4472C122.605 26.8952 122.167 26.4731 121.617 26.1808C121.082 25.8886 120.507 25.7424 119.891 25.7424C119.276 25.7424 118.693 25.8886 118.142 26.1808C117.607 26.4731 117.17 26.8952 116.829 27.4472C116.505 27.983 116.343 28.6243 116.343 29.3712V36.5314H114.108Z" fill="#0066FF"/>
<path d="M129.224 36.5314V24.1107H131.484V36.5314H129.224ZM130.367 22.138C129.962 22.138 129.605 21.9919 129.297 21.6996C129.006 21.3911 128.86 21.0339 128.86 20.628C128.86 20.2221 129.006 19.8731 129.297 19.5808C129.605 19.2723 129.962 19.1181 130.367 19.1181C130.772 19.1181 131.12 19.2723 131.411 19.5808C131.719 19.8731 131.873 20.2221 131.873 20.628C131.873 21.0339 131.719 21.3911 131.411 21.6996C131.12 21.9919 130.772 22.138 130.367 22.138Z" fill="#0066FF"/>
<path d="M134.845 36.5314V34.6074H140.774C141.163 34.6074 141.495 34.5262 141.77 34.3638C142.062 34.1852 142.281 33.9579 142.426 33.6819C142.572 33.4059 142.645 33.1136 142.645 32.8052C142.645 32.5129 142.58 32.245 142.451 32.0015C142.321 31.7417 142.119 31.5387 141.843 31.3926C141.584 31.2303 141.268 31.1491 140.896 31.1491H138.393C137.599 31.1491 136.902 31.0192 136.303 30.7594C135.719 30.4834 135.258 30.0856 134.918 29.566C134.594 29.0465 134.432 28.4133 134.432 27.6664C134.432 27.0332 134.585 26.4487 134.893 25.9129C135.201 25.3771 135.63 24.9469 136.181 24.6221C136.732 24.2812 137.364 24.1107 138.077 24.1107H143.787V26.0347H138.295C137.793 26.0347 137.396 26.1889 137.105 26.4974C136.813 26.8059 136.667 27.1712 136.667 27.5934C136.667 27.9993 136.813 28.3565 137.105 28.6649C137.412 28.9572 137.842 29.1033 138.393 29.1033H140.774C141.665 29.1033 142.41 29.2494 143.01 29.5417C143.625 29.8177 144.087 30.2236 144.395 30.7594C144.719 31.2952 144.881 31.9528 144.881 32.7321C144.881 33.3978 144.719 34.0229 144.395 34.6074C144.071 35.1756 143.617 35.6384 143.034 35.9956C142.467 36.3528 141.803 36.5314 141.041 36.5314H134.845Z" fill="#0066FF"/>
<path d="M147.902 36.5314V19.4834H155.071C156.14 19.4834 157.112 19.7269 157.987 20.214C158.862 20.6849 159.559 21.3505 160.077 22.2111C160.595 23.0716 160.855 24.0782 160.855 25.231C160.855 26.335 160.595 27.3255 160.077 28.2022C159.575 29.0627 158.886 29.7365 158.011 30.2236C157.137 30.7107 156.14 30.9542 155.022 30.9542H150.235V36.5314H147.902ZM150.235 28.8841H154.755C155.452 28.8841 156.084 28.7461 156.651 28.4701C157.234 28.1779 157.687 27.7557 158.011 27.2037C158.352 26.6517 158.522 25.9941 158.522 25.231C158.522 24.4517 158.352 23.7941 158.011 23.2583C157.671 22.7063 157.218 22.2841 156.651 21.9919C156.084 21.6996 155.46 21.5535 154.779 21.5535H150.235V28.8841Z" fill="#0066FF"/>
<path d="M163.514 36.5314V27.6421C163.514 26.538 163.822 25.6775 164.437 25.0605C165.069 24.4273 165.936 24.1107 167.038 24.1107H169.589V26.0347H167.451C166.916 26.0347 166.495 26.1889 166.187 26.4974C165.895 26.8059 165.75 27.2362 165.75 27.7882V36.5314H163.514Z" fill="#0066FF"/>
<path d="M177.487 36.8236C176.224 36.8236 175.106 36.5395 174.134 35.9712C173.162 35.3867 172.392 34.6074 171.825 33.6332C171.258 32.6428 170.975 31.5387 170.975 30.321C170.975 29.1033 171.258 28.0074 171.825 27.0332C172.392 26.0428 173.162 25.2635 174.134 24.6952C175.106 24.1107 176.224 23.8184 177.487 23.8184C178.751 23.8184 179.869 24.1107 180.841 24.6952C181.829 25.2635 182.599 26.0347 183.149 27.0088C183.716 27.983 184 29.0871 184 30.321C184 31.5387 183.716 32.6428 183.149 33.6332C182.599 34.6074 181.829 35.3867 180.841 35.9712C179.869 36.5395 178.751 36.8236 177.487 36.8236ZM177.487 34.8996C178.346 34.8996 179.091 34.6967 179.723 34.2908C180.355 33.8849 180.849 33.341 181.205 32.659C181.562 31.9609 181.74 31.1815 181.74 30.321C181.74 29.4605 181.562 28.6893 181.205 28.0074C180.849 27.3092 180.355 26.7572 179.723 26.3513C179.091 25.9454 178.346 25.7424 177.487 25.7424C176.645 25.7424 175.9 25.9454 175.252 26.3513C174.62 26.7572 174.126 27.3092 173.77 28.0074C173.413 28.6893 173.235 29.4605 173.235 30.321C173.235 31.1815 173.413 31.9609 173.77 32.659C174.126 33.341 174.62 33.8849 175.252 34.2908C175.9 34.6967 176.645 34.8996 177.487 34.8996Z" fill="#0066FF"/>
<path d="M57.1776 28.652C57.1776 44.4761 44.378 57.3041 28.5888 57.3041C12.7996 57.3041 0 44.4761 0 28.652C0 12.828 12.7996 0 28.5888 0C44.378 0 57.1776 12.828 57.1776 28.652Z" fill="#0066FF"/>
<path d="M40.4529 20.4058C39.594 20.0159 38.5827 20.3978 38.1938 21.2583L36.3434 25.3531C36.3434 25.3531 31.8233 27.1922 31.0265 27.451C29.4814 27.9526 27.6443 27.7957 24.8161 28.5475L19.4558 29.8728L15.6919 27.0567C16.4005 25.824 17.5957 23.7438 17.8946 23.2179C18.218 22.6486 18.945 21.8789 19.3127 21.5062C20.0836 21.6224 20.8969 21.5197 21.6906 21.2065C22.9421 20.7128 24.0301 19.7393 24.7542 18.465C25.4776 17.1913 25.7577 15.7568 25.5425 14.4256C25.3166 13.0283 24.5787 11.9086 23.4646 11.2728C22.8501 10.9224 22.1725 10.7445 21.4511 10.7445C20.8709 10.7445 20.2813 10.8612 19.6985 11.0912C18.4464 11.5853 17.3585 12.5588 16.6351 13.8325C15.9114 15.106 15.6313 16.5406 15.8464 17.872C15.9825 18.7141 16.3131 19.4736 16.8048 20.0764C16.678 20.5727 16.3974 21.5732 16.0582 22.1701C15.7515 22.7096 14.153 25.4909 13.6278 26.405L13.592 26.467C13.4666 26.5334 13.3491 26.6199 13.2455 26.7284C12.7227 27.2752 12.7407 28.1437 13.2866 28.6681L17.9594 33.1578C18.2937 33.4747 18.7706 33.6453 19.2608 33.5694L24.1154 32.8197L25.4185 42.4455L22.0331 56.6357C21.8552 57.5788 22.3789 58.5399 23.3081 58.879C24.3411 59.2561 25.4834 58.7225 25.8596 57.6873L30.6584 45.9139L32.5344 49.8878L31.1889 56.692C30.9795 57.7946 31.8553 58.7005 32.9124 58.8678C34.0299 59.0445 35.0009 58.2807 35.2549 57.1601L37.1839 49.7124C37.2329 49.394 37.2054 49.0508 37.0849 48.7277L35.1187 43.4545L33.4064 30.9601L38.6294 28.6176C39.0454 28.4291 39.388 28.0778 39.5531 27.6126L41.3564 22.5377C41.6481 21.7099 41.266 20.7751 40.4529 20.4058ZM18.0721 14.6528C18.8484 13.2861 20.1722 12.4029 21.4446 12.4029C21.8807 12.4029 22.2849 12.5074 22.6463 12.7133C24.0922 13.5385 24.3928 15.751 23.3166 17.6453C22.5405 19.0119 21.2167 19.895 19.9441 19.895C19.508 19.895 19.1037 19.7905 18.7427 19.5844C18.0521 19.1905 17.5991 18.4663 17.467 17.5451C17.332 16.6045 17.5468 15.5772 18.0721 14.6528Z" fill="white"/>
<path d="M23.5069 22.9273C23.2471 25.1502 24.8348 27.1625 27.0528 27.4226C29.2706 27.6827 31.2788 26.0915 31.5383 23.8687C31.7976 21.6461 30.2098 19.6334 27.992 19.3735C25.7741 19.1133 23.766 20.7045 23.5069 22.9273Z" fill="white"/>
<path d="M37.7641 18.0358C38.6077 18.0358 39.2917 17.3503 39.2917 16.5048C39.2917 15.6593 38.6077 14.9739 37.7641 14.9739C36.9204 14.9739 36.2365 15.6593 36.2365 16.5048C36.2365 17.3503 36.9204 18.0358 37.7641 18.0358Z" fill="white"/>
</svg>
